<?xml version="1.0" encoding="UTF-8"?>
<svg id="Layer_2" data-name="Layer 2" xmlns="http://www.w3.org/2000/svg" viewBox="0 0 455.09 133.94">
  <defs>
    <style>
      .cls-1 {
        fill: #4533f7;
      }
    </style>
  </defs>
  <g id="_图层_1" data-name="图层 1">
    <path d="M414.78,43.5c.48.79.95,1.57,1.42,2.35,10.2-16.25,20.44-28.93,37.86-28.93V0c-22.69,0-36.63,13.93-47.7,30.02,3.01,4.53,5.78,9.11,8.42,13.48Z"/>
    <path d="M392.39,57.02c-.48-.79-.95-1.57-1.42-2.35-10.2,16.25-20.44,28.93-37.86,28.93v16.92c22.69,0,36.63-13.93,47.7-30.02-3.01-4.53-5.78-9.11-8.42-13.48Z"/>
    <path d="M246.39,56.77l7.49,2.81c10.57,4.05,14.32,7.25,14.32,12.23,0,.74-.08,1.45-.21,2.13,5.02-3.52,9.38-8.68,13.66-14.88-5.53-9.07-16.28-13.19-21.77-15.3l-7.49-2.81c-10.57-4.05-14.32-7.25-14.32-12.23,0-7.28,6.16-11.8,16.07-11.8,6.04,0,11.87,2.15,17.33,6.4l10.39-13.36c-8.5-6.61-17.82-9.96-27.71-9.96-19.43,0-33,11.81-33,28.72,0,18.37,17.65,25.14,25.25,28.05Z"/>
    <path d="M190.49,57.02c-2.05-3.39-4.02-6.66-5.98-9.75.09.99.14,1.98.14,2.99,0,18.38-14.95,33.34-33.34,33.34s-33.34-14.95-33.34-33.34c0-1.13.06-2.25.17-3.36-2.03,3.2-4.08,6.59-6.21,10.12-2.31,3.83-4.73,7.82-7.32,11.8,7.4,18.55,25.54,31.7,46.69,31.7s39.17-13.06,46.62-31.51c-2.64-4.04-5.09-8.11-7.44-12Z"/>
    <path class="cls-1" d="M410.83,45.89c-12.99-21.51-27.71-45.89-57.72-45.89s-44.73,24.38-57.72,45.89c-12.22,20.24-22.77,37.71-43.23,37.71s-31.01-17.48-43.23-37.71C195.94,24.38,181.22,0,151.21,0s-44.73,24.38-57.72,45.89c-12.22,20.24-22.77,37.71-43.23,37.71-18.38,0-33.34-14.95-33.34-33.34S31.88,16.92,50.26,16.92c7.08,0,13.86,2.28,19.44,6.29l10.38-13.37C71.57,3.58,61.16,0,50.26,0,22.55,0,0,22.55,0,50.26s22.55,50.26,50.26,50.26c30.01,0,44.73-24.38,57.72-45.89,12.22-20.24,22.77-37.71,43.23-37.71s31.01,17.48,43.23,37.71c12.99,21.51,27.71,45.89,57.72,45.89s44.73-24.38,57.72-45.89c12.22-20.24,22.77-37.71,43.23-37.71s31.01,17.48,43.23,37.71c12.99,21.51,27.71,45.89,57.72,45.89v-16.92c-20.46,0-31.01-17.48-43.23-37.71Z"/>
    <g>
      <path d="M277.38,132.54c-1.55-.93-2.76-2.19-3.64-3.77s-1.31-3.31-1.31-5.2.44-3.59,1.31-5.17,2.09-2.84,3.62-3.77,3.25-1.4,5.13-1.4c1.63,0,3.11.36,4.45,1.07,1.34.72,2.51,1.71,3.53,2.97v.03l-.05.06-2.25,1.79s-.04.02-.05.01c-.02,0-.02-.02,0-.04-.83-1.01-1.68-1.77-2.55-2.26-.87-.5-1.89-.75-3.07-.75-1.37,0-2.6.32-3.66.96-1.07.64-1.9,1.53-2.51,2.67-.61,1.14-.91,2.41-.91,3.83s.3,2.71.9,3.85c.6,1.14,1.43,2.03,2.51,2.67s2.3.96,3.68.96v2.88c-1.86,0-3.57-.47-5.11-1.4ZM288.12,128.12s.02,0,.04.01l2.33,1.76s.03.02.03.05c-.92,1.19-2.09,2.16-3.5,2.89-1.41.73-2.92,1.1-4.53,1.1-1.88,0-3.59-.47-5.13-1.4-1.54-.93-2.75-2.19-3.62-3.77s-1.31-3.31-1.31-5.2.44-3.59,1.31-5.17,2.09-2.84,3.64-3.77c1.55-.93,3.25-1.4,5.11-1.4v2.88c-1.37,0-2.6.32-3.66.96-1.07.64-1.9,1.53-2.51,2.67-.61,1.14-.91,2.41-.91,3.83s.3,2.71.9,3.85c.6,1.14,1.43,2.03,2.51,2.67s2.3.96,3.68.96c1.16,0,2.2-.25,3.12-.75.92-.5,1.74-1.22,2.47-2.16.02-.02.03-.03.04-.04Z"/>
      <path d="M297.59,132.55c-1.58-.92-2.84-2.17-3.77-3.74-.93-1.57-1.4-3.3-1.4-5.18s.46-3.62,1.4-5.21c.93-1.59,2.19-2.85,3.78-3.78,1.59-.93,3.32-1.4,5.18-1.4s3.59.47,5.18,1.4c1.59.93,2.85,2.19,3.78,3.78s1.4,3.33,1.4,5.21-.47,3.61-1.4,5.18-2.19,2.82-3.77,3.74c-1.58.92-3.31,1.38-5.2,1.38s-3.61-.46-5.2-1.38ZM306.53,130.11c1.1-.63,1.96-1.51,2.58-2.65.61-1.13.92-2.41.92-3.84s-.31-2.71-.92-3.85c-.61-1.14-1.48-2.04-2.59-2.69-1.11-.65-2.36-.98-3.73-.98s-2.62.33-3.73.98c-1.11.65-1.98,1.55-2.59,2.69-.61,1.14-.92,2.42-.92,3.85s.31,2.71.92,3.84c.61,1.13,1.47,2.01,2.58,2.65,1.1.63,2.35.95,3.74.95s2.64-.32,3.74-.95Z"/>
      <path d="M315.28,128.13s.02-.02.04,0l2.9-.43.05.03.03.03c.23,1.16.86,2.05,1.89,2.69,1.02.63,2.14.87,3.36.72,1.22-.15,2.18-.72,2.89-1.7.4-.56.61-1.15.62-1.76.02-.61-.15-1.17-.52-1.66-.36-.49-.89-.83-1.57-1.03-.43-.14-1.28-.3-2.52-.46-.25-.04-.86-.13-1.82-.27-1.32-.24-2.38-.88-3.19-1.93s-1.2-2.24-1.19-3.57c0-1.33.46-2.48,1.37-3.46,1.05-1.17,2.37-1.86,3.96-2.06,1.59-.2,3.11.08,4.57.84,1.46.76,2.51,1.92,3.16,3.47.04.02.05.03.04.04-.01,0-.03.03-.07.07l-2.66,1.03s-.06.05-.07.03c0-.02-.02-.04-.04-.05-.43-.96-1.05-1.67-1.86-2.14-.81-.47-1.64-.65-2.51-.53-.87.12-1.62.54-2.25,1.26-.45.49-.69,1.05-.7,1.67s.17,1.18.57,1.68c.4.5.94.82,1.63.96.24.05.5.11.8.15.3.04.62.09.96.12,1.19.13,2.15.3,2.88.52,1.37.45,2.41,1.17,3.12,2.14.71.98,1.04,2.06,1.02,3.26-.03,1.19-.42,2.32-1.18,3.36-1.1,1.56-2.69,2.46-4.76,2.7-2.07.24-4-.16-5.78-1.21-1.78-1.05-2.84-2.53-3.16-4.45-.02-.02-.02-.04-.01-.05Z"/>
      <path d="M336.27,133.64h-3.01s-.01-.02-.01-.05v-19.99s0-.05.01-.05h3.01s.01.02.01.05v19.99s0,.05-.01.05Z"/>
      <path d="M352.59,113.53h3s.01.02.01.05v20.02s-.04.03-.05.03h-2.67s-.01,0-.01-.03l-9.36-14.51v14.49s0,.05-.01.05h-3.01s-.01-.02-.01-.05v-20.02s.04-.03.05-.03h2.66s.03,0,.03.03l9.33,14.51v-14.49s.02-.05.05-.05Z"/>
      <path d="M359.76,133.61v-20.05s.04-.03.05-.03h2.98v20.1h-2.98s-.04,0-.05-.03ZM371.83,113.55v2.92s0,.03-.03.03h-10.5v-2.96h10.5s.03,0,.03.01ZM370.93,122.27v2.6s0,.04-.03.05h-9.6v-2.71h9.6s.03.04.03.05ZM371.83,130.71v2.92s0,.01-.03.01h-10.5v-2.96h10.5s.03,0,.03.03Z"/>
      <path d="M386.07,133.65s-.05-.01-.08-.01h-3.55s-.03,0-.03-.03l14.38-20.08s-.01,0,.01,0h3.62s.03,0,.03.03l-14.38,20.08s.02.02,0,.01ZM400.89,133.64h-3.56s-.06,0-.08.01-.02,0,0-.01l-14.38-20.08s0-.03.03-.03.02,0,0,0h3.62s.03,0,.01,0l14.38,20.08s-.01.03-.03.03Z"/>
      <path d="M412.09,133.61v-20.02s0-.05.01-.05h3.01s.01.02.01.05v20.05h-2.98s-.04,0-.05-.03ZM424.05,130.69v2.94h-10.04v-2.96h10.01s.03,0,.03.01Z"/>
      <path d="M436.37,113.53v2.94s-.02.01-.06.01h-14.24s-.05,0-.05-.01v-2.94h14.35ZM430.73,133.64h-3.04v-18.75h3.04v18.75Z"/>
      <path d="M438.87,133.61v-20.05s.04-.03.05-.03h2.98v20.1h-2.98s-.04,0-.05-.03ZM440.49,130.68h4.96c1.43,0,2.64-.3,3.62-.91.98-.61,1.72-1.44,2.21-2.51.49-1.07.73-2.29.73-3.66s-.24-2.65-.73-3.72-1.23-1.9-2.21-2.5c-.99-.6-2.19-.9-3.62-.9h-4.96v-2.96h4.96c1.99,0,3.71.46,5.16,1.38,1.45.92,2.55,2.15,3.32,3.69.77,1.54,1.15,3.2,1.15,4.99s-.38,3.4-1.15,4.94c-.77,1.54-1.88,2.77-3.34,3.7-1.46.93-3.17,1.4-5.14,1.4h-4.96v-2.96Z"/>
    </g>
  </g>
</svg>