<?xml version="1.0" encoding="UTF-8"?>
<svg id="Layer_2" data-name="Layer 2" xmlns="http://www.w3.org/2000/svg" xmlns:xlink="http://www.w3.org/1999/xlink" viewBox="0 0 289.34 289.34">
  <defs>
    <style>
      .cls-1 {
        fill: url(#_未命名的渐变_24-2);
      }

      .cls-2 {
        fill: url(#_未命名的渐变_24-3);
      }

      .cls-3 {
        fill: #fff;
      }

      .cls-4 {
        fill: url(#_未命名的渐变_24);
      }
    </style>
    <linearGradient id="_未命名的渐变_24" data-name="未命名的渐变 24" x1="238.78" y1="155.42" x2="225.74" y2="142.37" gradientUnits="userSpaceOnUse">
      <stop offset="0" stop-color="#fff" stop-opacity="0"/>
      <stop offset="1" stop-color="#fff"/>
    </linearGradient>
    <linearGradient id="_未命名的渐变_24-2" data-name="未命名的渐变 24" x1="109.71" y1="143.97" x2="125.47" y2="157.97" xlink:href="#_未命名的渐变_24"/>
    <linearGradient id="_未命名的渐变_24-3" data-name="未命名的渐变 24" x1="10661.83" y1="143.97" x2="10676.66" y2="157.15" gradientTransform="translate(10831.34) rotate(-180) scale(1 -1)" xlink:href="#_未命名的渐变_24"/>
  </defs>
  <g id="_图层_1" data-name="图层 1">
    <rect width="289.34" height="289.34"/>
    <path class="cls-3" d="M246.52,141.42c-9.07,15.01-16.89,27.98-32.07,27.98s-23.01-12.97-32.07-27.98c-9.63-15.96-20.55-34.05-42.82-34.05s-33.19,18.09-42.82,34.05c-9.06,15.01-16.89,27.98-32.07,27.98-13.64,0-24.73-11.1-24.73-24.73s11.1-24.73,24.73-24.73c5.32,0,10.34,1.67,14.45,4.63l7.71-9.92c-6.28-4.64-13.97-7.27-22.16-7.27-20.56,0-37.29,16.73-37.29,37.29s16.73,37.29,37.29,37.29c22.27,0,33.19-18.09,42.82-34.05,9.06-15.01,16.89-27.98,32.07-27.98s23.01,12.97,32.07,27.98c9.63,15.96,20.55,34.05,42.82,34.05s33.19-18.09,42.82-34.05c9.06-15.01,16.89-27.98,32.07-27.98v-12.56c-22.27,0-33.19,18.09-42.82,34.05Z"/>
    <path class="cls-4" d="M210.16,149.5l5.55,2.08c7.84,3.01,10.62,5.38,10.62,9.07,0,5.39-4.56,8.75-11.91,8.75,0,0,0,0,.01,0,10.36,0,17.29-6.04,23.53-14.64-3.07-9.27-13.07-13.1-17.81-14.92l-5.56-2.08c-7.84-3.01-10.62-5.38-10.62-9.07,0-5.4,4.57-8.75,11.92-8.75,4.48,0,8.8,1.6,12.85,4.75l7.71-9.91c-6.31-4.9-13.22-7.39-20.56-7.39-14.41,0-24.48,8.76-24.48,21.31,0,13.63,13.09,18.65,18.73,20.81Z"/>
    <g>
      <path class="cls-1" d="M114.89,144.67c0-5.79,2-11.11,5.34-15.33-4.57,5.01-8.53,11.57-12.76,18.57-1.26,2.09-2.55,4.23-3.88,6.35,4.24,15.93,18.79,27.7,36.03,27.7v-12.56c-13.64,0-24.73-11.1-24.73-24.73Z"/>
      <path class="cls-2" d="M164.33,144.67c0-5.79-2-11.11-5.34-15.33,4.57,5.01,8.53,11.57,12.76,18.57,1.26,2.09,2.55,4.23,3.88,6.35-4.24,15.93-18.79,27.7-36.03,27.7v-12.56c13.64,0,24.73-11.1,24.73-24.73Z"/>
    </g>
  </g>
</svg>