<?xml version="1.0" encoding="UTF-8"?>
<svg id="Layer_2" data-name="Layer 2" xmlns="http://www.w3.org/2000/svg" viewBox="0 0 289.34 289.34">
  <defs>
    <style>
      .cls-1 {
        fill: #fff;
      }

      .cls-2 {
        fill: #4533f7;
      }
    </style>
  </defs>
  <g id="_图层_1" data-name="图层 1">
    <rect class="cls-1" width="289.34" height="289.34"/>
    <path d="M210.16,149.5l5.56,2.08c7.84,3.01,10.62,5.38,10.62,9.07,0,.55-.06,1.07-.15,1.58,3.72-2.61,6.96-6.44,10.13-11.04-4.1-6.73-12.08-9.79-16.15-11.35l-5.55-2.08c-7.84-3.01-10.62-5.38-10.62-9.07,0-5.4,4.57-8.75,11.92-8.75,4.48,0,8.8,1.6,12.85,4.75l7.71-9.91c-6.31-4.9-13.22-7.39-20.56-7.39-14.41,0-24.48,8.76-24.48,21.31,0,13.63,13.09,18.65,18.73,20.81Z"/>
    <path d="M168.69,149.69c-1.52-2.52-2.99-4.94-4.44-7.24.07.73.1,1.47.1,2.22,0,13.64-11.1,24.73-24.73,24.73s-24.73-11.1-24.73-24.73c0-.84.04-1.67.13-2.49-1.51,2.37-3.03,4.89-4.61,7.51-1.71,2.84-3.51,5.8-5.43,8.76,5.49,13.76,18.94,23.52,34.64,23.52s29.06-9.69,34.59-23.37c-1.96-3-3.78-6.01-5.52-8.9Z"/>
    <path class="cls-2" d="M246.52,141.42c-9.06,15.01-16.89,27.98-32.07,27.98s-23.01-12.97-32.07-27.98c-9.64-15.96-20.55-34.05-42.82-34.05s-33.19,18.09-42.82,34.05c-9.06,15.01-16.89,27.98-32.07,27.98-13.64,0-24.73-11.1-24.73-24.73s11.1-24.73,24.73-24.73c5.25,0,10.28,1.69,14.43,4.67l7.7-9.92c-6.32-4.66-14.04-7.31-22.13-7.31-20.56,0-37.29,16.73-37.29,37.29s16.73,37.29,37.29,37.29c22.27,0,33.19-18.09,42.82-34.05,9.06-15.01,16.89-27.98,32.07-27.98s23.01,12.97,32.07,27.98c9.63,15.96,20.56,34.05,42.82,34.05s33.19-18.09,42.82-34.05c9.06-15.01,16.89-27.98,32.07-27.98v-12.56c-22.27,0-33.19,18.09-42.82,34.05Z"/>
  </g>
</svg>